# xmcd
#
# Track frame offsets: 
#        150
#        14914
#        30279
#        40744
#        52691
#        62937
#        75399
#        89436
#        102809
#        116088
#
# Disc length: 1701 seconds
#
# Revision: 0
# Processed by: cddbd v1.5.2PL0 Copyright (c) Steve Scherf et al.
# Submitted via: ExactAudioCopyFreeDBPlugin 1.0
#
DISCID=7306a30a
DTITLE=Billie Jo Spears - I Will Survive
DYEAR=1979
DGENRE=Country
TTITLE0=I Will Survive
TTITLE1=Angel In Your Arms
TTITLE2=Every Day I Have To Cry Some
TTITLE3=It Should Have Been Easy
TTITLE4=I'm Good At What I Do
TTITLE5=Livin' Our Love Together
TTITLE6=I Think I'll Go Home
TTITLE7=You
TTITLE8=Happy Ever After
TTITLE9=Rainy Days And Stormy Nights
EXTD=
EXTT0=
EXTT1=
EXTT2=
EXTT3=
EXTT4=
EXTT5=
EXTT6=
EXTT7=
EXTT8=
EXTT9=
PLAYORDER=
